<svg width="83" height="92" viewBox="0 0 83 92" fill="none" xmlns="http://www.w3.org/2000/svg">
<path d="M41.0332 0C35.0905 0 30.091 3.8675 28.2988 9.24427H7.82933C3.49018 9.24427 0 12.7345 0 17.0736V83.2928C0 87.6319 3.49018 91.1221 7.82933 91.1221H74.3315C78.6706 91.1221 82.1608 87.6319 82.1608 83.2928V17.0736C82.1608 12.7345 78.6706 9.24427 74.3315 9.24427H53.7677C51.9754 3.96183 46.976 0 41.0332 0ZM41.0332 8.67829C43.5801 8.67829 45.6554 10.7535 45.6554 13.3004C45.6554 15.8473 43.5801 17.9226 41.0332 17.9226C38.4863 17.9226 36.4111 15.8473 36.4111 13.3004C36.4111 10.7535 38.4863 8.67829 41.0332 8.67829ZM41.1276 28.2045C47.259 28.2045 52.2584 33.2039 52.2584 39.3353C52.2584 45.4667 47.259 50.4662 41.1276 50.4662C34.9962 50.4662 29.9967 45.4667 29.9967 39.3353C29.9967 33.2039 34.9962 28.2045 41.1276 28.2045ZM63.3893 76.501H18.8659C18.8659 64.1439 28.8648 54.2393 41.1276 54.2393C53.3904 54.2393 63.3893 64.2382 63.3893 76.501Z" fill="black"/>
</svg>
