<svg width="83" height="92" viewBox="0 0 83 92" fill="none" xmlns="http://www.w3.org/2000/svg">
  <path
    d="M41.0332 2.5C45.8309 2.5 49.928 5.70804 51.4004 10.0479L51.9756 11.7441H74.3311C77.2894 11.7441 79.6609 14.115 79.6611 17.0732V83.293C79.661 86.2513 77.2894 88.6221 74.3311 88.6221H7.8291C4.87085 88.6219 2.50012 86.2512 2.5 83.293V17.0732C2.50019 14.115 4.87089 11.7443 7.8291 11.7441H30.1006L30.6709 10.0352C32.1388 5.63155 36.216 2.50001 41.0332 2.5Z"
    stroke="black"
    stroke-width="5"
    stroke-linejoin="round"
  />
  <circle
    cx="41.1276"
    cy="39.3353"
    r="11.1309"
    stroke="black"
    stroke-width="5"
    fill="none"
  />
  <path
    d="M18.8659 76.501C18.8659 64.1439 28.8648 54.2393 41.1276 54.2393C53.3904 54.2393 63.3893 64.2382 63.3893 76.501"
    stroke="black"
    stroke-width="5"
    stroke-linecap="round"
    fill="none"
  />
</svg>