<svg width="88" height="87" viewBox="0 0 88 87" fill="none" xmlns="http://www.w3.org/2000/svg">
<path d="M61.3799 7.77344C57.6501 12.7513 58.0586 19.8294 62.6045 24.3477C67.1497 28.8649 74.2634 29.265 79.2646 25.5498L84.459 30.7129L70.9307 44.1592L66.6172 39.8721L65.3125 38.5752L64.0088 39.8721L61.1992 42.6641L59.8799 43.9756L61.1992 45.2881L65.4971 49.5605L30.9004 83.9473L25.7031 78.7812C29.4325 73.8035 29.0253 66.7273 24.4795 62.209C19.9343 57.6914 12.8198 57.2903 7.81836 61.0059L2.62305 55.8418L37.2207 21.4551L41.5352 25.7432L42.8398 27.0391L44.1436 25.7432L46.9531 22.9512L48.2734 21.6387L46.9531 20.3271L42.6553 16.0547L56.1826 2.6084L61.3799 7.77344ZM55.5811 31.4951L52.7725 34.2871L51.4521 35.5996L52.7725 36.9121L58.3906 42.4961L59.6943 43.792L60.999 42.4961L63.8076 39.7041L65.1279 38.3916L63.8076 37.0801L58.1895 31.4951L56.8857 30.1992L55.5811 31.4951ZM47.1533 23.1191L44.3447 25.9111L43.0244 27.2236L44.3447 28.5352L49.9629 34.1191L51.2666 35.416L52.5713 34.1191L55.3809 31.3271L56.7002 30.0156L55.3799 28.7031L49.7617 23.1191L48.458 21.8232L47.1533 23.1191Z" stroke="black" stroke-width="3.7"/>
</svg>
