<svg width="90" height="89" viewBox="0 0 90 89" fill="none" xmlns="http://www.w3.org/2000/svg">
<path d="M0 57.1506L7.90615 65.0088C12.2726 60.6689 19.3521 60.6689 23.7184 65.0088C28.0849 69.3488 28.0848 76.3852 23.7184 80.7251L31.6246 88.5834L69.7177 50.7212L63.9678 45.0061L66.8426 42.1486L72.5926 47.8636L89.1235 31.4329L81.2174 23.5746C76.851 27.9146 69.7716 27.9146 65.4052 23.5746C61.0388 19.2348 61.0387 12.1982 65.4052 7.85823L57.499 0L40.9681 16.4308L46.718 22.1459L43.843 25.0034L38.0931 19.2884L0 57.1506ZM28.7495 40.0054L38.138 43.9791L45.9544 37.1033L44.8539 47.3055L53.6583 52.3955L43.5735 54.7396L41.2152 64.7632L36.0941 56.0121L25.8297 57.1059L32.7475 49.337L28.7495 40.0054ZM46.718 27.8609L49.5929 25.0034L55.3428 30.7184L52.4679 33.576L46.718 27.8609ZM55.3428 36.4335L58.2178 33.576L63.9677 39.291L61.0928 42.1486L55.3428 36.4335Z" fill="black"/>
</svg>
