<svg width="18" height="12" viewBox="0 0 18 12" fill="none" xmlns="http://www.w3.org/2000/svg">
<path fill-rule="evenodd" clip-rule="evenodd" d="M15.4957 10.1772V11.1646C15.4957 11.3863 15.4049 11.599 15.2437 11.7554C15.0824 11.9119 14.8633 12 14.6348 12H0.860874C0.632358 12 0.413217 11.9119 0.251997 11.7554C0.0907796 11.599 0 11.3863 0 11.1646V2.65823C0 2.43646 0.0907816 2.2238 0.251997 2.06734C0.413215 1.91088 0.632338 1.82278 0.860874 1.82278H1.25217V0.835447C1.25217 0.61368 1.34295 0.401013 1.50417 0.244555C1.66539 0.0880985 1.88451 0 2.11305 0H17.1391C17.3676 0 17.5868 0.0881004 17.748 0.244555C17.91 0.401011 18 0.613661 18 0.835447V9.34177C18 9.56354 17.9092 9.7762 17.748 9.93266C17.5868 10.0891 17.3677 10.1772 17.1391 10.1772H15.4957ZM14.6348 2.27849H0.860874C0.757571 2.27849 0.657401 2.31874 0.583833 2.38937C0.510268 2.46077 0.469573 2.55722 0.469573 2.65823V11.1646C0.469573 11.2656 0.511051 11.362 0.583833 11.4334C0.657399 11.5048 0.75679 11.5443 0.860874 11.5443H14.6348C14.7389 11.5443 14.8383 11.504 14.9118 11.4334C14.9854 11.362 15.0261 11.2656 15.0261 11.1646V2.65823C15.0261 2.55722 14.9846 2.46077 14.9118 2.38937C14.8383 2.31798 14.7389 2.27849 14.6348 2.27849ZM15.4957 9.72147H17.1391C17.2432 9.72147 17.3426 9.68122 17.4162 9.61059C17.4897 9.53919 17.5304 9.44274 17.5304 9.34173V0.835406C17.5304 0.734394 17.4889 0.637943 17.4162 0.566548C17.3426 0.495156 17.2432 0.455663 17.1391 0.455663H2.11305C2.00974 0.455663 1.90957 0.495916 1.83601 0.566548C1.76244 0.637941 1.72175 0.734396 1.72175 0.835406V1.82274H14.6348C14.8633 1.82274 15.0824 1.91084 15.2436 2.0673C15.4049 2.22375 15.4956 2.4364 15.4956 2.65819L15.4957 9.72147ZM1.25213 9.34173V3.26579C1.25213 3.13971 1.357 3.03793 1.48692 3.03793H6.49561C6.62553 3.03793 6.7304 3.13971 6.7304 3.26579V9.34173C6.7304 9.46781 6.62553 9.56958 6.49561 9.56958H1.48692C1.35701 9.56958 1.25213 9.46781 1.25213 9.34173ZM6.26083 7.85236V3.49362H1.72175V7.85236C2.04731 7.38603 2.52158 7.02603 3.078 6.83463C2.72896 6.57032 2.50435 6.15867 2.50435 5.69614C2.50435 4.90019 3.17034 4.2531 3.99131 4.2531C4.81227 4.2531 5.47827 4.90019 5.47827 5.69614C5.47827 6.15867 5.25366 6.57032 4.90461 6.83463C5.46182 7.02602 5.93526 7.38601 6.26083 7.85236ZM1.73337 9.11388H6.2482C6.13081 8.00426 5.16508 7.13925 3.99109 7.13925H3.98952C2.8156 7.13925 1.84981 8.0043 1.7324 9.11388H1.73337ZM3.99189 6.6835C4.55302 6.6835 5.00849 6.24072 5.00849 5.69616C5.00849 5.15085 4.55302 4.70883 3.99111 4.70883C3.42997 4.70883 2.97372 5.15085 2.97372 5.69616C2.97372 6.24072 3.42919 6.6835 3.99033 6.6835H3.99189ZM10.878 10.7848C10.7481 10.7848 10.6433 10.683 10.6433 10.557C10.6433 10.4309 10.7481 10.3291 10.878 10.3291H14.0085C14.1384 10.3291 14.2433 10.4309 14.2433 10.557C14.2433 10.683 14.1376 10.7848 14.0085 10.7848H10.878ZM12.1302 9.56962C12.0011 9.56962 11.8954 9.46785 11.8954 9.34177C11.8954 9.21569 12.0011 9.11392 12.1302 9.11392H14.0085C14.1384 9.11392 14.2433 9.21569 14.2433 9.34177C14.2433 9.46785 14.1376 9.56962 14.0085 9.56962H12.1302ZM7.74761 5.92406C7.61848 5.92406 7.51282 5.82228 7.51282 5.6962C7.51282 5.57012 7.61847 5.46835 7.74761 5.46835H14.0085C14.1384 5.46835 14.2433 5.57012 14.2433 5.6962C14.2433 5.82228 14.1376 5.92406 14.0085 5.92406H7.74761ZM7.74761 4.70887C7.61848 4.70887 7.51282 4.60709 7.51282 4.48101C7.51282 4.35493 7.61847 4.25316 7.74761 4.25316H14.0085C14.1384 4.25316 14.2433 4.35493 14.2433 4.48101C14.2433 4.60709 14.1376 4.70887 14.0085 4.70887H7.74761ZM1.48674 10.7848C1.35683 10.7848 1.25195 10.683 1.25195 10.557C1.25195 10.4309 1.35682 10.3291 1.48674 10.3291H6.49543C6.62535 10.3291 6.73022 10.4309 6.73022 10.557C6.73022 10.683 6.62535 10.7848 6.49543 10.7848H1.48674ZM7.74761 3.49368C7.61848 3.49368 7.51282 3.39191 7.51282 3.26582C7.51282 3.13974 7.61847 3.03797 7.74761 3.03797H14.0085C14.1384 3.03797 14.2433 3.13974 14.2433 3.26582C14.2433 3.39191 14.1376 3.49368 14.0085 3.49368H7.74761Z" fill="black"/>
</svg>
