<svg width="17" height="12" viewBox="0 0 17 12" fill="none" xmlns="http://www.w3.org/2000/svg">
<path fill-rule="evenodd" clip-rule="evenodd" d="M1.18259 1.3671V0.835446C1.18259 0.613679 1.26833 0.401012 1.42059 0.244554C1.57285 0.0880983 1.7798 0 1.99564 0H16.187C16.4028 0 16.6097 0.0881003 16.762 0.244554C16.915 0.40101 17 0.61366 17 0.835446V9.34175C17 9.56352 16.9143 9.77619 16.762 9.93265C16.6097 10.0891 16.4028 10.1772 16.187 10.1772H15.0783V2.65821C15.0783 2.31568 14.9459 1.98758 14.7102 1.7453C14.4751 1.50302 14.1551 1.36708 13.8217 1.36708L1.18259 1.3671ZM13.8218 1.8228C14.0376 1.8228 14.2445 1.9109 14.3968 2.06735C14.5491 2.22381 14.6348 2.43646 14.6348 2.65825V11.1646C14.6348 11.3863 14.5491 11.599 14.3968 11.7554C14.2445 11.9119 14.0376 12 13.8218 12H0.813049C0.597227 12 0.390261 11.9119 0.237998 11.7554C0.0857363 11.599 0 11.3863 0 11.1646V2.65825C0 2.43648 0.0857382 2.22381 0.237998 2.06735C0.390259 1.9109 0.597208 1.8228 0.813049 1.8228H13.8218ZM7.3174 3.49369H13.2304C13.3531 3.49369 13.4522 3.39192 13.4522 3.26584C13.4522 3.13976 13.3524 3.03799 13.2304 3.03799H7.3174C7.19544 3.03799 7.09566 3.13976 7.09566 3.26584C7.09566 3.39192 7.19544 3.49369 7.3174 3.49369ZM7.3174 5.92407H13.2304C13.3531 5.92407 13.4522 5.82229 13.4522 5.69621C13.4522 5.57013 13.3524 5.46836 13.2304 5.46836H7.3174C7.19544 5.46836 7.09566 5.57013 7.09566 5.69621C7.09566 5.82229 7.19544 5.92407 7.3174 5.92407ZM1.40435 10.7848H6.13479C6.25749 10.7848 6.35654 10.683 6.35654 10.557C6.35654 10.4309 6.25749 10.3291 6.13479 10.3291H1.40435C1.28166 10.3291 1.18261 10.4309 1.18261 10.557C1.18261 10.683 1.28165 10.7848 1.40435 10.7848ZM11.4565 9.56963H13.2304C13.3531 9.56963 13.4522 9.46785 13.4522 9.34177C13.4522 9.21569 13.3524 9.11392 13.2304 9.11392H11.4565C11.3346 9.11392 11.2348 9.21569 11.2348 9.34177C11.2348 9.46785 11.3346 9.56963 11.4565 9.56963ZM7.3174 4.70888H13.2304C13.3531 4.70888 13.4522 4.60711 13.4522 4.48103C13.4522 4.35495 13.3524 4.25317 13.2304 4.25317H7.3174C7.19544 4.25317 7.09566 4.35495 7.09566 4.48103C7.09566 4.60711 7.19544 4.70888 7.3174 4.70888ZM10.2739 10.7848H13.2304C13.3531 10.7848 13.4522 10.683 13.4522 10.557C13.4522 10.4309 13.3524 10.3291 13.2304 10.3291H10.2739C10.1512 10.3291 10.0522 10.4309 10.0522 10.557C10.0522 10.683 10.1512 10.7848 10.2739 10.7848ZM1.18259 9.34177C1.18259 9.46785 1.28163 9.56963 1.40433 9.56963H6.13477C6.25747 9.56963 6.35652 9.46785 6.35652 9.34177V3.26584C6.35652 3.13976 6.25747 3.03799 6.13477 3.03799H1.40433C1.28164 3.03799 1.18259 3.13976 1.18259 3.26584V9.34177ZM1.63715 9.11392C1.74802 8.00431 2.65936 7.13929 3.76887 7.13929H3.77035C4.87905 7.13929 5.79119 8.00435 5.90207 9.11392H1.63715ZM3.7702 6.68355H3.76872C3.23876 6.68355 2.80859 6.24077 2.80859 5.69621C2.80859 5.1509 3.2395 4.70888 3.76946 4.70888C4.30015 4.70888 4.73032 5.1509 4.73032 5.69621C4.73032 6.24077 4.30016 6.68355 3.7702 6.68355ZM5.9129 7.8524C5.60542 7.38608 5.1575 7.02607 4.63199 6.83468C4.96164 6.57037 5.17377 6.15872 5.17377 5.69619C5.17377 4.90024 4.54478 4.25315 3.76942 4.25315C2.99406 4.25315 2.36507 4.90024 2.36507 5.69619C2.36507 6.15872 2.5772 6.57037 2.90685 6.83468C2.38134 7.02607 1.93342 7.38606 1.62595 7.8524V3.49367H5.91286L5.9129 7.8524Z" fill="black"/>
</svg>
