<svg width="17" height="14" viewBox="0 0 17 14" fill="none" xmlns="http://www.w3.org/2000/svg">
<path d="M15.7562 5.91524C16.2474 5.91524 16.6449 6.3074 16.6449 6.79122V8.24239C15.8252 8.24254 15.1627 8.89651 15.1634 9.70235L15.1712 9.85177C15.2472 10.5891 15.8775 11.1643 16.6458 11.1643V12.6125L16.641 12.7024C16.5951 13.1443 16.2168 13.4885 15.7572 13.4885H4.39584L4.30502 13.4836C3.85665 13.4388 3.50732 13.065 3.50717 12.6115V6.79122C3.50717 6.30748 3.90446 5.91536 4.39487 5.91524H15.7562ZM4.39487 6.41524C4.1741 6.41536 4.00717 6.59008 4.00717 6.79122V12.6115C4.00734 12.8129 4.17466 12.9885 4.39584 12.9885H7.2269V6.41524H4.39487ZM7.7269 12.9885H15.7572C15.9781 12.9885 16.1456 12.8139 16.1458 12.6125V11.5979C15.3595 11.3953 14.759 10.7295 14.6742 9.90352L14.6634 9.70235C14.6627 8.78581 15.2959 8.02645 16.1449 7.80782V6.79122C16.1449 6.59024 15.978 6.41524 15.7562 6.41524H7.7269V12.9885Z" fill="black"/>
<mask id="path-2-inside-1_13_123" fill="white">
<path d="M12.2858 0.00644387C12.7736 -0.0514452 13.2186 0.287004 13.278 0.768163L13.4596 2.21152C12.6453 2.3121 12.0716 3.03655 12.1735 3.84043C12.2492 4.44852 12.6943 4.92416 13.2623 5.07187H4.61879L4.61781 5.06504C4.46605 5.06603 3.98955 5.07801 3.82191 5.10898C3.7077 5.13013 3.5172 5.1945 3.50746 5.19785L3.3893 5.24961C2.80918 5.52897 2.41371 6.11497 2.41371 6.78965V8.8209L1.7223 8.90488C1.23528 8.96276 0.795356 8.62511 0.731092 8.14414L0.00648306 2.36484C-0.0519741 1.88384 0.291261 1.44519 0.778944 1.3873L2.97426 1.11875V1.11387L4.07191 1.00644V1.01035L12.2858 0.00644387Z"/>
</mask>
<path d="M12.2858 0.00644387L12.2269 -0.490075L12.2251 -0.489863L12.2858 0.00644387ZM13.278 0.768163L12.7817 0.829398L12.7819 0.830593L13.278 0.768163ZM13.4596 2.21152L13.5209 2.70775L14.0183 2.64632L13.9557 2.14909L13.4596 2.21152ZM12.1735 3.84043L12.6696 3.77866L12.6695 3.77757L12.1735 3.84043ZM13.2623 5.07187V5.57187L13.3882 4.58797L13.2623 5.07187ZM4.61879 5.07187L4.12381 5.14258L4.18514 5.57187H4.61879V5.07187ZM4.61781 5.06504L5.11279 4.99433L5.05105 4.5622L4.61455 4.56505L4.61781 5.06504ZM3.82191 5.10898L3.73106 4.61731L3.73089 4.61734L3.82191 5.10898ZM3.50746 5.19785L3.34491 4.72501L3.32558 4.73166L3.30685 4.73986L3.50746 5.19785ZM3.3893 5.24961L3.18869 4.79162L3.18045 4.79522L3.17235 4.79912L3.3893 5.24961ZM2.41371 8.8209L2.474 9.31725L2.91371 9.26384V8.8209H2.41371ZM1.7223 8.90488L1.78131 9.40139L1.78259 9.40123L1.7223 8.90488ZM0.731092 8.14414L0.23496 8.20634L0.235497 8.21036L0.731092 8.14414ZM0.00648306 2.36484L-0.489868 2.42516L-0.489633 2.42705L0.00648306 2.36484ZM0.778944 1.3873L0.837875 1.88382L0.839657 1.8836L0.778944 1.3873ZM2.97426 1.11875L3.03497 1.61505L3.47426 1.56131V1.11875H2.97426ZM2.97426 1.11387L2.92556 0.616243L2.47426 0.660409V1.11387H2.97426ZM4.07191 1.00644H4.57191V0.455123L4.02321 0.508821L4.07191 1.00644ZM4.07191 1.01035H3.57191V1.57518L4.13257 1.50666L4.07191 1.01035ZM12.2858 0.00644387L12.3447 0.50296C12.5701 0.476212 12.7574 0.632167 12.7817 0.829398L13.278 0.768163L13.7742 0.706927C13.6798 -0.0581586 12.9771 -0.579102 12.2269 -0.490072L12.2858 0.00644387ZM13.278 0.768163L12.7819 0.830593L12.9635 2.27395L13.4596 2.21152L13.9557 2.14909L13.7741 0.705732L13.278 0.768163ZM13.4596 2.21152L13.3983 1.71529C12.3168 1.84888 11.5398 2.8175 11.6774 3.90329L12.1735 3.84043L12.6695 3.77757C12.6034 3.25561 12.9739 2.77532 13.5209 2.70775L13.4596 2.21152ZM12.1735 3.84043L11.6773 3.9022C11.7795 4.72304 12.3796 5.35895 13.1365 5.55578L13.2623 5.07187L13.3882 4.58797C13.0091 4.48937 12.7189 4.174 12.6696 3.77866L12.1735 3.84043ZM13.2623 5.07187V4.57187H4.61879V5.07187V5.57187H13.2623V5.07187ZM4.61879 5.07187L5.11376 5.00116L5.11279 4.99433L4.61781 5.06504L4.12284 5.13575L4.12381 5.14258L4.61879 5.07187ZM4.61781 5.06504L4.61455 4.56505C4.53229 4.56558 4.36899 4.56899 4.20386 4.57625C4.05161 4.58294 3.85506 4.59439 3.73106 4.61731L3.82191 5.10898L3.91277 5.60066C3.95641 5.5926 4.08192 5.58257 4.24777 5.57528C4.40073 5.56856 4.55156 5.56548 4.62107 5.56503L4.61781 5.06504ZM3.82191 5.10898L3.73089 4.61734C3.57397 4.64639 3.34826 4.72386 3.34491 4.72501L3.50746 5.19785L3.67001 5.67069C3.66924 5.67095 3.68027 5.6672 3.69932 5.661C3.71797 5.65493 3.74302 5.64695 3.77071 5.63854C3.83202 5.61994 3.88534 5.60574 3.91294 5.60063L3.82191 5.10898ZM3.50746 5.19785L3.30685 4.73986L3.18869 4.79162L3.3893 5.24961L3.5899 5.7076L3.70807 5.65584L3.50746 5.19785ZM3.3893 5.24961L3.17235 4.79912C2.42763 5.15776 1.91371 5.91372 1.91371 6.78965H2.41371H2.91371C2.91371 6.31622 3.19074 5.90019 3.60624 5.70009L3.3893 5.24961ZM2.41371 6.78965H1.91371V8.8209H2.41371H2.91371V6.78965H2.41371ZM2.41371 8.8209L2.35342 8.32455L1.66201 8.40853L1.7223 8.90488L1.78259 9.40123L2.474 9.31725L2.41371 8.8209ZM1.7223 8.90488L1.6633 8.40837C1.44279 8.43458 1.25411 8.28315 1.22669 8.07792L0.731092 8.14414L0.235497 8.21036C0.336603 8.96708 1.02777 9.49094 1.78131 9.40139L1.7223 8.90488ZM0.731092 8.14414L1.22721 8.08194L0.502599 2.30264L0.00648306 2.36484L-0.489633 2.42705L0.234977 8.20634L0.731092 8.14414ZM0.00648306 2.36484L0.502831 2.30452C0.477915 2.0995 0.623634 1.90925 0.837875 1.88382L0.778944 1.3873L0.720013 0.890788C-0.0411116 0.981126 -0.581863 1.66817 -0.489865 2.42516L0.00648306 2.36484ZM0.778944 1.3873L0.839657 1.8836L3.03497 1.61505L2.97426 1.11875L2.91354 0.622448L0.718231 0.891003L0.778944 1.3873ZM2.97426 1.11875H3.47426V1.11387H2.97426H2.47426V1.11875H2.97426ZM2.97426 1.11387L3.02296 1.61149L4.12061 1.50407L4.07191 1.00644L4.02321 0.508821L2.92556 0.616243L2.97426 1.11387ZM4.07191 1.00644H3.57191V1.01035H4.07191H4.57191V1.00644H4.07191ZM4.07191 1.01035L4.13257 1.50666L12.3464 0.502751L12.2858 0.00644387L12.2251 -0.489863L4.01125 0.514043L4.07191 1.01035Z" fill="black" mask="url(#path-2-inside-1_13_123)"/>
</svg>
