<svg width="17" height="14" viewBox="0 0 17 14" fill="none" xmlns="http://www.w3.org/2000/svg">
<path d="M2.9921 1.11652L0.778423 1.38671C0.290607 1.44461 -0.0521532 1.88385 0.00653953 2.36501L0.730509 8.14363C0.794606 8.62479 1.23453 8.96287 1.72167 8.90498L2.41325 8.82046V6.78931C2.41325 6.06988 2.86329 5.45163 3.50696 5.19808L2.9921 1.11652Z" fill="black"/>
<path d="M13.0258 5.07166C12.4577 4.92392 12.0131 4.44807 11.9375 3.8398C11.8356 3.03586 12.4091 2.31178 13.2235 2.2113L13.0413 0.767801C12.982 0.286642 12.5373 -0.0514416 12.0495 0.00645029L3.83356 1.01136L4.34837 5.07163L13.0258 5.07166Z" fill="black"/>
<path d="M3.27088 6.79053V12.6111C3.27088 13.0949 3.66829 13.4875 4.15947 13.4875H6.39007L6.3894 5.91474H4.1588C3.66828 5.91474 3.27088 6.30671 3.27088 6.79053Z" fill="black"/>
<path d="M16.4089 8.24209V6.79062C16.4089 6.3068 16.0114 5.91481 15.5203 5.91481H7.24075V13.4883H15.521C16.0115 13.4883 16.4095 13.0963 16.4095 12.6118V11.1637C15.5898 11.1637 14.9272 10.5095 14.9272 9.70155C14.9265 8.89561 15.5891 8.24209 16.4089 8.24209Z" fill="black"/>
<path d="M16.4089 8.24209V6.79062C16.4089 6.3068 16.0114 5.91481 15.5203 5.91481H7.24075V13.4883H15.521C16.0115 13.4883 16.4095 13.0963 16.4095 12.6118V11.1637C15.5898 11.1637 14.9272 10.5095 14.9272 9.70155C14.9265 8.89561 15.5891 8.24209 16.4089 8.24209Z" fill="black" fill-opacity="0.2"/>
</svg>
